PathFileType	4	(X/Y/Z)	/Users/visionmauri/1_5_1_f_1_Sports2D/1_5_1_f_1_Sports2D_px_person00.trc
DataRate	CameraRate	NumFrames	NumMarkers	Units	OrigDataRate	OrigDataStartFrame	OrigNumFrames
30.0	30.0	9	22	m	30.0	216	432
Frame#	Time	Hip			RHip			RKnee			RAnkle			RBigToe			RSmallToe			RHeel			LHip			LKnee			LAnkle			LBigToe			LSmallToe			LHeel			Neck			Head			Nose			RShoulder			RElbow			RWrist			LShoulder			LElbow			LWrist			
		X1	Y1	Z1	X2	Y2	Z2	X3	Y3	Z3	X4	Y4	Z4	X5	Y5	Z5	X6	Y6	Z6	X7	Y7	Z7	X8	Y8	Z8	X9	Y9	Z9	X10	Y10	Z10	X11	Y11	Z11	X12	Y12	Z12	X13	Y13	Z13	X14	Y14	Z14	X15	Y15	Z15	X16	Y16	Z16	X17	Y17	Z17	X18	Y18	Z18	X19	Y19	Z19	X20	Y20	Z20	X21	Y21	Z21	X22	Y22	Z22
216	7.216705336426915	504.1480020942426	835.2746588823494	0.0	460.6512166547528	836.9737768297979	0.0	449.20608901347094	1011.8387229505074	0.0	479.1796269642267	1186.5037962390736	0.0	437.17301511273627	1248.8642550353438	0.0	427.92448014537666	1236.7862879565655	0.0	495.33391716997306	1215.3637737573847	0.0	548.950796487375	834.3922480727656	0.0	529.4427843691968	1002.130116430478	0.0	517.1261779195389	1194.3038234214532	0.0	492.98672073273974	1243.7093987263886	0.0	511.5881693630897	1241.1195439112992	0.0	524.809413833093	1216.7283408359401	0.0	481.1799195744211	576.666064279512	0.0	419.94788756261426	463.7866001015859	0.0	433.05732707016824	556.8322938875461	0.0	414.2758201902893	602.9510877453142	0.0	420.43787770801845	718.563827666634	0.0	366.9267988854439	787.742917655287	0.0	565.8994891707925	590.6432518393834	0.0	620.2463997407066	716.6291294474679	0.0	597.4641693500184	757.6382031033294	0.0
217	7.250116009280743	501.0772787225065	835.2027464970215	0.0	456.6578008427345	837.876541249604	0.0	447.16653470793716	1012.4224238736901	0.0	478.74485125899207	1185.764576696183	0.0	438.60913034243094	1247.9977671872064	0.0	428.689660590306	1235.8393726339489	0.0	494.90177377030403	1214.6299231928542	0.0	547.3286287760799	834.3525902509948	0.0	529.2425660667521	1002.8685641310741	0.0	519.1739782523391	1194.6670727263281	0.0	488.36986677208824	1242.7513258561064	0.0	507.5818493453027	1242.2065923634384	0.0	526.7401873959458	1217.5773015309937	0.0	477.9135728389445	576.6181758002688	0.0	419.8313890216398	463.4250982964266	0.0	434.3476772152687	556.5080725251023	0.0	409.34180697514773	604.2569429538944	0.0	413.97971116761795	720.6599412469906	0.0	365.6002671345108	788.0625371351342	0.0	564.773510940122	588.5254736970884	0.0	620.4326047912134	712.4997568503685	0.0	597.6702563112295	766.2733225475046	0.0
218	7.283526682134571	497.141066733256	835.3615332004193	0.0	452.08729912945597	838.8180837620488	0.0	445.6651131506791	1012.7762771870723	0.0	477.91959775250945	1184.962007062059	0.0	439.7841781154082	1247.4400583439233	0.0	429.4101960321426	1235.3955037567443	0.0	493.66341402532055	1214.014838830139	0.0	544.0417904314345	834.0445416359267	0.0	528.466899524178	1004.5626338308705	0.0	519.9898573359725	1194.8432002805966	0.0	484.8837081365289	1243.752321345079	0.0	504.6795880031932	1244.752799123218	0.0	528.2127746036458	1219.5652537442502	0.0	474.59065092675894	577.3299012689911	0.0	420.5964813772931	463.9093853444081	0.0	436.1289969238714	556.4851521971157	0.0	403.30909984176486	606.3153013717189	0.0	406.82936887134247	722.3487529337878	0.0	365.6523837648943	788.0021272409255	0.0	563.3372085606925	586.757406850884	0.0	620.5834732190964	709.0852935864802	0.0	595.8493440420895	778.0293748224398	0.0
219	7.3169373549884	493.1878577910247	835.4425059749651	0.0	447.7094129039492	838.2918160179636	0.0	444.9042749961957	1012.037021120156	0.0	476.97760046114473	1184.1582854088015	0.0	440.61635306179954	1247.2986468254926	0.0	431.1297092050542	1235.7213775843577	0.0	493.31648928559946	1213.8300786519203	0.0	540.1964275280959	833.2700900881454	0.0	527.5884712801777	1004.377712675423	0.0	519.9135166513171	1195.0493955050565	0.0	481.97169645039696	1248.1301858088764	0.0	502.29671044195203	1249.601852851507	0.0	529.0151736920326	1222.447648622008	0.0	472.59005963815076	578.7681612508571	0.0	422.2551391884103	464.31715305642496	0.0	437.76940746458	558.3880629560073	0.0	398.2805527052714	607.7848487412202	0.0	400.6363174616511	722.6733103853372	0.0	366.16025342529736	788.4959366036331	0.0	561.7006241111384	585.8514683436168	0.0	620.7473598852131	706.9526255901388	0.0	594.6691756118141	787.2185060481786	0.0
220	7.350348027842228	490.2524541794657	834.7879039565147	0.0	444.41049112886816	836.766694766011	0.0	444.51280283468947	1011.1948950068543	0.0	476.4063239361986	1183.3788546207588	0.0	440.9199755767	1246.1198471043256	0.0	432.7410777146364	1235.299572332003	0.0	493.4598288340514	1213.5507920723392	0.0	537.1201222515662	832.960714284305	0.0	528.2422861541589	1002.5876739324714	0.0	521.1523173301612	1195.4447132415253	0.0	479.70771375328155	1252.839878570671	0.0	501.8975766910942	1254.5992654136608	0.0	529.8658560872179	1225.1554451627037	0.0	472.01497979840076	579.9454388748537	0.0	425.1208769105592	464.53445526635016	0.0	439.84377623839754	561.5396585480897	0.0	395.2247632489546	607.8323379229231	0.0	395.91101081840696	721.3575889194551	0.0	366.3288348970187	790.9965020085936	0.0	561.0705060965067	585.5381681891186	0.0	620.2760283491143	704.7537262950528	0.0	595.933264245342	792.5140686018229	0.0
221	7.383758700696056	488.54009064099466	833.6520754485856	0.0	442.4938847991029	835.8333464178452	0.0	444.05171455767055	1011.7919890509037	0.0	476.2516060875959	1182.5988857718903	0.0	440.775544613781	1242.9766430740285	0.0	432.4543459844741	1232.8634425257653	0.0	492.5033648815809	1212.55415751406	0.0	534.9996123159302	833.2459921048458	0.0	530.5832122989683	999.3866471472779	0.0	524.4494608409691	1195.5688385665926	0.0	481.35070303538566	1255.0088538596056	0.0	506.6635945830005	1256.8730411942279	0.0	531.209365865886	1226.29323582232	0.0	471.81516115911165	580.0939030098228	0.0	429.35110079230554	464.64534963213134	0.0	443.1768996028098	563.299194801581	0.0	393.28837102772303	607.5980864672406	0.0	391.83089047196984	719.6782975808172	0.0	366.14543088224576	795.491088636685	0.0	562.2407955072232	585.3288420889431	0.0	619.1397345992578	702.1280690945441	0.0	599.0662383648151	795.0838785046793	0.0
222	7.417169373549885	487.41733918140994	832.6008343323547	0.0	441.5534060173403	835.1383509634902	0.0	443.72699452366965	1012.8727462028248	0.0	476.4190987820419	1181.7842699722682	0.0	440.72869440944555	1239.7788475072525	0.0	430.86039899212017	1230.1594368361673	0.0	491.02077717842553	1211.3623518040558	0.0	533.6802051350312	832.1666687984357	0.0	532.5244883831945	992.0377227400817	0.0	528.0391916333133	1195.0042812386152	0.0	487.6957727781695	1255.9188540751732	0.0	514.9206196579566	1257.5220252815975	0.0	532.5167531028836	1226.5822431074805	0.0	471.6230107236619	580.00140838997	0.0	433.87856032282724	464.5855944466398	0.0	447.1538074410601	563.0125255745576	0.0	391.5469327632142	607.7686192083361	0.0	388.0127511118993	718.7594773702504	0.0	366.2480787174927	800.3170775088814	0.0	563.9531272920792	585.2327430893101	0.0	618.2128633828275	700.3045081197926	0.0	601.6153498277695	796.1271852960784	0.0
223	7.450580046403713	486.43099468677525	831.4794343970876	0.0	440.9625115383127	833.4865193959614	0.0	443.75771896491284	1012.3009953018238	0.0	476.74778758406273	1181.0630256949516	0.0	441.19213331811795	1238.4200917354917	0.0	430.04912537090854	1229.3081837635066	0.0	490.66245230626015	1210.6629627311186	0.0	533.4330539258011	828.4968042163525	0.0	532.9637770109086	980.8912180419045	0.0	530.7643565611555	1193.705574281696	0.0	496.9757069743155	1257.252580375447	0.0	523.5128739941192	1258.248797531768	0.0	533.4028519688377	1226.3459790393072	0.0	471.6311444230719	581.0529850181617	0.0	437.7341187565582	464.5360317167164	0.0	450.7951098155666	563.2033957604875	0.0	389.68222400062353	607.6175082199221	0.0	384.9187814840064	718.348563018513	0.0	366.8882117102069	804.0209398718429	0.0	564.5998399736768	585.6144804044168	0.0	617.7571412943878	699.7161319722153	0.0	602.5908845284888	796.6253987972567	0.0
224	7.483990719257541	485.7625327803559	830.0106585525544	0.0	440.2079386965767	831.2079491911521	0.0	443.93250818505066	1010.3987610143668	0.0	476.62840947835076	1180.3941877234633	0.0	442.3535193961893	1238.3956966294538	0.0	430.42149326366996	1229.8406772350197	0.0	490.9883517559839	1209.6984120338016	0.0	534.0154448244501	823.9471381381076	0.0	533.1813839392029	971.5159462056056	0.0	533.9390569421943	1191.648860782202	0.0	506.9957794252213	1257.694257290501	0.0	532.1404189366428	1257.6023429933282	0.0	535.1436448150015	1223.880523767937	0.0	471.6395844219273	582.777455938899	0.0	441.70986388388707	464.701411540939	0.0	454.4638564056705	565.1447715857372	0.0	387.66638167600496	606.6812422926884	0.0	382.49772110228747	717.5364697707931	0.0	367.59522030605325	806.1166800519818	0.0	564.5373439112126	586.2949429819607	0.0	616.7499767942406	699.2977101469429	0.0	603.2366738341357	797.2760085198232	0.0
